HIERARCHY
ROOT pelvis
{
  OFFSET 0 100 0
  CHANNELS 6 Xposition Yposition Zposition Zrotation Xrotation Yrotation
  JOINT pelvis_right_femur
  {
    OFFSET -10.78128 -3.44521 -0.5502486
    CHANNELS 3 Zrotation Xrotation Yrotation
    JOINT right_femur_tibia
    {
      OFFSET -0.8047443 -44.0398 -0.1307829
      CHANNELS 3 Zrotation Xrotation Yrotation
      JOINT right_tibia_foot
      {
        OFFSET 3.006224 -47.83518 -5
        CHANNELS 3 Zrotation Xrotation Yrotation
        End Site
        {
          OFFSET 0 -5 15
        }
      }
    }
  }
  JOINT pelvis_left_femur
  {
    OFFSET 10.78128 -3.44521 -0.5502486
    CHANNELS 3 Zrotation Xrotation Yrotation
    JOINT left_femur_tibia
    {
      OFFSET 0.8047443 -44.0398 -0.1307829
      CHANNELS 3 Zrotation Xrotation Yrotation
      JOINT left_tibia_foot
      {
        OFFSET -4.370144 -48.10324 -4.275266
        CHANNELS 3 Zrotation Xrotation Yrotation
        End Site
        {
          OFFSET 0 -5 15
        }
      }
    }
  }
  JOINT pelvis_spine1
  {
    OFFSET 0 6.468898 -3.129235
    CHANNELS 3 Zrotation Xrotation Yrotation
    JOINT spine1
    {
      OFFSET 0 23.15396 4.99043
      CHANNELS 3 Zrotation Xrotation Yrotation
      JOINT spine2
      {
        OFFSET 0 20.79997 -5.064912
        CHANNELS 3 Zrotation Xrotation Yrotation
        JOINT neck
        {
          OFFSET 0 14.38658 9.616178
          CHANNELS 3 Zrotation Xrotation Yrotation
          End Site
          {
            OFFSET 0 20 0
          }
        }
      }
      JOINT right_manubrium
      {
        OFFSET -5.722621 16.35077 3.967754
        CHANNELS 3 Zrotation Xrotation Yrotation
        JOINT right_clavicle
        {
          OFFSET -13.16364 1.694482 -4.693211
          CHANNELS 3 Zrotation Xrotation Yrotation
          JOINT right_humerus
          {
            OFFSET -28.5034 -0.3100689 -2.792744
            CHANNELS 3 Zrotation Xrotation Yrotation
            JOINT right_radius
            {
              OFFSET -25.15693 0.02248979 -1.271978
              CHANNELS 3 Zrotation Xrotation Yrotation
              End Site
              {
                OFFSET -15 0 0
              }
            }
          }
        }
      }
      JOINT left_manubrium
      {
        OFFSET 5.722621 16.35077 3.967754
        CHANNELS 3 Zrotation Xrotation Yrotation
        JOINT left_clavicle
        {
          OFFSET 13.16364 1.694482 -4.693211
          CHANNELS 3 Zrotation Xrotation Yrotation
          JOINT left_humerus
          {
            OFFSET 29.39168 -1.063119 -2.237045
            CHANNELS 3 Zrotation Xrotation Yrotation
            JOINT left_radius
            {
              OFFSET 24.59957 -0.9528479 0.9047498
              CHANNELS 3 Zrotation Xrotation Yrotation
              End Site
              {
                OFFSET 15 -0 -0
              }
            }
          }
        }
      }
    }
  }
}
MOTION
Frames: 23
Frame Time: 0.0416666666667
-31.08562 115.3959 311.7708 -7.058346 -7.51659 -36.19904 5.965218 16.19197 -0.2688603 -0 14.20963 -0 -9.076961 -13.45947 -1.234249 4.342752 -16.36351 -5.323539 -0 7.045872 -0 0.149784 -2.194931 16.33453 2.072657 -4.011216 6.798874 -0.6637197 15.76296 -4.441082 1.891311 19.86741 2.371508 0.8935461 -16.62169 4.74878 -0.9705245 -30.663 12.30258 87.04912 13.69074 -6.817444 -0 0 29.85961 -27.30662 19.80993 18.75615 2.817938 -20.90245 -8.042914 -97.27854 12.92107 37.11144 0 0 -5.413021 1.885813 17.00451 9.99959
-33.5194 115.3721 317.2108 -7.164029 -7.415987 -37.01232 5.965218 16.19197 -0.2688603 -0 14.20963 -0 -9.076961 -13.45947 -1.234249 4.342752 -16.36351 -5.323539 -0 7.045872 -0 0.149784 -2.194931 16.33453 2.072657 -4.011216 6.798874 -0.6637197 15.76296 -4.441082 1.891311 19.86741 2.371508 0.8935461 -16.62169 4.74878 -0.9705245 -30.663 12.30258 87.04912 13.69074 -6.817444 -0 0 29.85961 -27.30662 19.80993 18.75615 2.817938 -20.90245 -8.042914 -97.27854 12.92107 37.11144 0 0 -5.413021 1.885813 17.00451 9.99959
-36.03009 115.3483 322.6158 -7.268236 -7.313908 -37.82523 5.965218 16.19197 -0.2688603 -0 14.20963 -0 -9.076961 -13.45947 -1.234249 4.342752 -16.36351 -5.323539 -0 7.045872 -0 0.149784 -2.194931 16.33453 2.072657 -4.011216 6.798874 -0.6637197 15.76296 -4.441082 1.891311 19.86741 2.371508 0.8935461 -16.62169 4.74878 -0.9705245 -30.663 12.30258 87.04912 13.69074 -6.817444 -0 0 29.85961 -27.30662 19.80993 18.75615 2.817938 -20.90245 -8.042914 -97.27854 12.92107 37.11144 0 0 -5.413021 1.885813 17.00451 9.99959
-38.61719 115.3245 327.9845 -7.37095 -7.210373 -38.63777 5.965218 16.19197 -0.2688603 -0 14.20963 -0 -9.076961 -13.45947 -1.234249 4.342752 -16.36351 -5.323539 -0 7.045872 -0 0.149784 -2.194931 16.33453 2.072657 -4.011216 6.798874 -0.6637197 15.76296 -4.441082 1.891311 19.86741 2.371508 0.8935461 -16.62169 4.74878 -0.9705245 -30.663 12.30258 87.04912 13.69074 -6.817444 -0 0 29.85961 -27.30662 19.80993 18.75615 2.817938 -20.90245 -8.042914 -97.27854 12.92107 37.11144 0 0 -5.413021 1.885813 17.00451 9.99959
-41.28017 115.3007 333.3161 -7.47215 -7.105403 -39.44993 5.965218 16.19197 -0.2688603 -0 14.20963 -0 -9.076961 -13.45947 -1.234249 4.342752 -16.36351 -5.323539 -0 7.045872 -0 0.149784 -2.194931 16.33453 2.072657 -4.011216 6.798874 -0.6637197 15.76296 -4.441082 1.891311 19.86741 2.371508 0.8935461 -16.62169 4.74878 -0.9705245 -30.663 12.30258 87.04912 13.69074 -6.817444 -0 0 29.85961 -27.30662 19.80993 18.75615 2.817938 -20.90245 -8.042914 -97.27854 12.92107 37.11144 0 0 -5.413021 1.885813 17.00451 9.99959
-44.0185 115.2768 338.6093 -7.571818 -6.999021 -40.26172 5.965218 16.19197 -0.2688603 -0 14.20963 -0 -9.076961 -13.45947 -1.234249 4.342752 -16.36351 -5.323539 -0 7.045872 -0 0.149784 -2.194931 16.33453 2.072657 -4.011216 6.798874 -0.6637197 15.76296 -4.441082 1.891311 19.86741 2.371508 0.8935461 -16.62169 4.74878 -0.9705245 -30.663 12.30258 87.04912 13.69074 -6.817444 -0 0 29.85961 -27.30662 19.80993 18.75615 2.817938 -20.90245 -8.042914 -97.27854 12.92107 37.11144 0 0 -5.413021 1.885813 17.00451 9.99959
-46.83163 115.253 343.8632 -7.669936 -6.891249 -41.07313 5.965218 16.19197 -0.2688603 -0 14.20963 -0 -9.076961 -13.45947 -1.234249 4.342752 -16.36351 -5.323539 -0 7.045872 -0 0.149784 -2.194931 16.33453 2.072657 -4.011216 6.798874 -0.6637197 15.76296 -4.441082 1.891311 19.86741 2.371508 0.8935461 -16.62169 4.74878 -0.9705245 -30.663 12.30258 87.04912 13.69074 -6.817444 -0 0 29.85961 -27.30662 19.80993 18.75615 2.817938 -20.90245 -8.042914 -97.27854 12.92107 37.11144 0 0 -5.413021 1.885813 17.00451 9.99959
-49.71899 115.2292 349.0766 -7.766484 -6.782109 -41.88418 5.965218 16.19197 -0.2688603 -0 14.20963 -0 -9.076961 -13.45947 -1.234249 4.342752 -16.36351 -5.323539 -0 7.045872 -0 0.149784 -2.194931 16.33453 2.072657 -4.011216 6.798874 -0.6637197 15.76296 -4.441082 1.891311 19.86741 2.371508 0.8935461 -16.62169 4.74878 -0.9705245 -30.663 12.30258 87.04912 13.69074 -6.817444 -0 0 29.85961 -27.30662 19.80993 18.75615 2.817938 -20.90245 -8.042914 -97.27854 12.92107 37.11144 0 0 -5.413021 1.885813 17.00451 9.99959
-52.68 115.2054 354.2486 -7.861445 -6.671623 -42.69485 5.965218 16.19197 -0.2688603 -0 14.20963 -0 -9.076961 -13.45947 -1.234249 4.342752 -16.36351 -5.323539 -0 7.045872 -0 0.149784 -2.194931 16.33453 2.072657 -4.011216 6.798874 -0.6637197 15.76296 -4.441082 1.891311 19.86741 2.371508 0.8935461 -16.62169 4.74878 -0.9705245 -30.663 12.30258 87.04912 13.69074 -6.817444 -0 0 29.85961 -27.30662 19.80993 18.75615 2.817938 -20.90245 -8.042914 -97.27854 12.92107 37.11144 0 0 -5.413021 1.885813 17.00451 9.99959
-55.71406 115.1816 359.378 -7.954802 -6.559814 -43.50516 5.965218 16.19197 -0.2688603 -0 14.20963 -0 -9.076961 -13.45947 -1.234249 4.342752 -16.36351 -5.323539 -0 7.045872 -0 0.149784 -2.194931 16.33453 2.072657 -4.011216 6.798874 -0.6637197 15.76296 -4.441082 1.891311 19.86741 2.371508 0.8935461 -16.62169 4.74878 -0.9705245 -30.663 12.30258 87.04912 13.69074 -6.817444 -0 0 29.85961 -27.30662 19.80993 18.75615 2.817938 -20.90245 -8.042914 -97.27854 12.92107 37.11144 0 0 -5.413021 1.885813 17.00451 9.99959
-58.82057 115.1578 364.4639 -8.046537 -6.446705 -44.3151 5.965218 16.19197 -0.2688603 -0 14.20963 -0 -9.076961 -13.45947 -1.234249 4.342752 -16.36351 -5.323539 -0 7.045872 -0 0.149784 -2.194931 16.33453 2.072657 -4.011216 6.798874 -0.6637197 15.76296 -4.441082 1.891311 19.86741 2.371508 0.8935461 -16.62169 4.74878 -0.9705245 -30.663 12.30258 87.04912 13.69074 -6.817444 -0 0 29.85961 -27.30662 19.80993 18.75615 2.817938 -20.90245 -8.042914 -97.27854 12.92107 37.11144 0 0 -5.413021 1.885813 17.00451 9.99959
-61.9989 115.1339 369.5053 -8.136634 -6.33232 -45.12468 5.965218 16.19197 -0.2688603 -0 14.20963 -0 -9.076961 -13.45947 -1.234249 4.342752 -16.36351 -5.323539 -0 7.045872 -0 0.149784 -2.194931 16.33453 2.072657 -4.011216 6.798874 -0.6637197 15.76296 -4.441082 1.891311 19.86741 2.371508 0.8935461 -16.62169 4.74878 -0.9705245 -30.663 12.30258 87.04912 13.69074 -6.817444 -0 0 29.85961 -27.30662 19.80993 18.75615 2.817938 -20.90245 -8.042914 -97.27854 12.92107 37.11144 0 0 -5.413021 1.885813 17.00451 9.99959
-65.24841 115.1101 374.501 -8.225077 -6.21668 -45.9339 5.965218 16.19197 -0.2688603 -0 14.20963 -0 -9.076961 -13.45947 -1.234249 4.342752 -16.36351 -5.323539 -0 7.045872 -0 0.149784 -2.194931 16.33453 2.072657 -4.011216 6.798874 -0.6637197 15.76296 -4.441082 1.891311 19.86741 2.371508 0.8935461 -16.62169 4.74878 -0.9705245 -30.663 12.30258 87.04912 13.69074 -6.817444 -0 0 29.85961 -27.30662 19.80993 18.75615 2.817938 -20.90245 -8.042914 -97.27854 12.92107 37.11144 0 0 -5.413021 1.885813 17.00451 9.99959
-68.56845 115.0863 379.4502 -8.311848 -6.099812 -46.74276 5.965218 16.19197 -0.2688603 -0 14.20963 -0 -9.076961 -13.45947 -1.234249 4.342752 -16.36351 -5.323539 -0 7.045872 -0 0.149784 -2.194931 16.33453 2.072657 -4.011216 6.798874 -0.6637197 15.76296 -4.441082 1.891311 19.86741 2.371508 0.8935461 -16.62169 4.74878 -0.9705245 -30.663 12.30258 87.04912 13.69074 -6.817444 -0 0 29.85961 -27.30662 19.80993 18.75615 2.817938 -20.90245 -8.042914 -97.27854 12.92107 37.11144 0 0 -5.413021 1.885813 17.00451 9.99959
-71.95834 115.0625 384.3518 -8.396934 -5.981737 -47.55126 5.965218 16.19197 -0.2688603 -0 14.20963 -0 -9.076961 -13.45947 -1.234249 4.342752 -16.36351 -5.323539 -0 7.045872 -0 0.149784 -2.194931 16.33453 2.072657 -4.011216 6.798874 -0.6637197 15.76296 -4.441082 1.891311 19.86741 2.371508 0.8935461 -16.62169 4.74878 -0.9705245 -30.663 12.30258 87.04912 13.69074 -6.817444 -0 0 29.85961 -27.30662 19.80993 18.75615 2.817938 -20.90245 -8.042914 -97.27854 12.92107 37.11144 0 0 -5.413021 1.885813 17.00451 9.99959
-75.41741 115.0387 389.2048 -8.480318 -5.86248 -48.35942 5.965218 16.19197 -0.2688603 -0 14.20963 -0 -9.076961 -13.45947 -1.234249 4.342752 -16.36351 -5.323539 -0 7.045872 -0 0.149784 -2.194931 16.33453 2.072657 -4.011216 6.798874 -0.6637197 15.76296 -4.441082 1.891311 19.86741 2.371508 0.8935461 -16.62169 4.74878 -0.9705245 -30.663 12.30258 87.04912 13.69074 -6.817444 -0 0 29.85961 -27.30662 19.80993 18.75615 2.817938 -20.90245 -8.042914 -97.27854 12.92107 37.11144 0 0 -5.413021 1.885813 17.00451 9.99959
-78.94497 115.0149 394.0082 -8.561985 -5.742065 -49.16723 5.965218 16.19197 -0.2688603 -0 14.20963 -0 -9.076961 -13.45947 -1.234249 4.342752 -16.36351 -5.323539 -0 7.045872 -0 0.149784 -2.194931 16.33453 2.072657 -4.011216 6.798874 -0.6637197 15.76296 -4.441082 1.891311 19.86741 2.371508 0.8935461 -16.62169 4.74878 -0.9705245 -30.663 12.30258 87.04912 13.69074 -6.817444 -0 0 29.85961 -27.30662 19.80993 18.75615 2.817938 -20.90245 -8.042914 -97.27854 12.92107 37.11144 0 0 -5.413021 1.885813 17.00451 9.99959
-82.54029 114.991 398.7612 -8.641921 -5.620518 -49.97469 5.965218 16.19197 -0.2688603 -0 14.20963 -0 -9.076961 -13.45947 -1.234249 4.342752 -16.36351 -5.323539 -0 7.045872 -0 0.149784 -2.194931 16.33453 2.072657 -4.011216 6.798874 -0.6637197 15.76296 -4.441082 1.891311 19.86741 2.371508 0.8935461 -16.62169 4.74878 -0.9705245 -30.663 12.30258 87.04912 13.69074 -6.817444 -0 0 29.85961 -27.30662 19.80993 18.75615 2.817938 -20.90245 -8.042914 -97.27854 12.92107 37.11144 0 0 -5.413021 1.885813 17.00451 9.99959
-86.20266 114.9672 403.4626 -8.720112 -5.497861 -50.78182 5.965218 16.19197 -0.2688603 -0 14.20963 -0 -9.076961 -13.45947 -1.234249 4.342752 -16.36351 -5.323539 -0 7.045872 -0 0.149784 -2.194931 16.33453 2.072657 -4.011216 6.798874 -0.6637197 15.76296 -4.441082 1.891311 19.86741 2.371508 0.8935461 -16.62169 4.74878 -0.9705245 -30.663 12.30258 87.04912 13.69074 -6.817444 -0 0 29.85961 -27.30662 19.80993 18.75615 2.817938 -20.90245 -8.042914 -97.27854 12.92107 37.11144 0 0 -5.413021 1.885813 17.00451 9.99959
-89.93135 114.9434 408.1117 -8.796544 -5.374121 -51.58861 5.965218 16.19197 -0.2688603 -0 14.20963 -0 -9.076961 -13.45947 -1.234249 4.342752 -16.36351 -5.323539 -0 7.045872 -0 0.149784 -2.194931 16.33453 2.072657 -4.011216 6.798874 -0.6637197 15.76296 -4.441082 1.891311 19.86741 2.371508 0.8935461 -16.62169 4.74878 -0.9705245 -30.663 12.30258 87.04912 13.69074 -6.817444 -0 0 29.85961 -27.30662 19.80993 18.75615 2.817938 -20.90245 -8.042914 -97.27854 12.92107 37.11144 0 0 -5.413021 1.885813 17.00451 9.99959
-93.72559 114.9196 412.7074 -8.871203 -5.249322 -52.39507 5.965218 16.19197 -0.2688603 -0 14.20963 -0 -9.076961 -13.45947 -1.234249 4.342752 -16.36351 -5.323539 -0 7.045872 -0 0.149784 -2.194931 16.33453 2.072657 -4.011216 6.798874 -0.6637197 15.76296 -4.441082 1.891311 19.86741 2.371508 0.8935461 -16.62169 4.74878 -0.9705245 -30.663 12.30258 87.04912 13.69074 -6.817444 -0 0 29.85961 -27.30662 19.80993 18.75615 2.817938 -20.90245 -8.042914 -97.27854 12.92107 37.11144 0 0 -5.413021 1.885813 17.00451 9.99959
-97.58464 114.8958 417.2488 -8.944076 -5.123489 -53.20121 5.965218 16.19197 -0.2688603 -0 14.20963 -0 -9.076961 -13.45947 -1.234249 4.342752 -16.36351 -5.323539 -0 7.045872 -0 0.149784 -2.194931 16.33453 2.072657 -4.011216 6.798874 -0.6637197 15.76296 -4.441082 1.891311 19.86741 2.371508 0.8935461 -16.62169 4.74878 -0.9705245 -30.663 12.30258 87.04912 13.69074 -6.817444 -0 0 29.85961 -27.30662 19.80993 18.75615 2.817938 -20.90245 -8.042914 -97.27854 12.92107 37.11144 0 0 -5.413021 1.885813 17.00451 9.99959
-101.5077 114.872 421.7351 -9.015151 -4.996647 -54.00703 5.965218 16.19197 -0.2688603 -0 14.20963 -0 -9.076961 -13.45947 -1.234249 4.342752 -16.36351 -5.323539 -0 7.045872 -0 0.149784 -2.194931 16.33453 2.072657 -4.011216 6.798874 -0.6637197 15.76296 -4.441082 1.891311 19.86741 2.371508 0.8935461 -16.62169 4.74878 -0.9705245 -30.663 12.30258 87.04912 13.69074 -6.817444 -0 0 29.85961 -27.30662 19.80993 18.75615 2.817938 -20.90245 -8.042914 -97.27854 12.92107 37.11144 0 0 -5.413021 1.885813 17.00451 9.99959
